<svg width="24" height="19" viewBox="0 0 24 19" fill="none" xmlns="http://www.w3.org/2000/svg">
<g id="Iconsax/Outline/arrowleft">
<path id="Vector" d="M9.57002 14.6378C9.38002 14.6378 9.19002 14.5834 9.04002 14.4667L2.97002 9.7456C2.83054 9.63583 2.75232 9.48772 2.75232 9.33338C2.75232 9.17905 2.83054 9.03093 2.97002 8.92116L9.04002 4.20005C9.33002 3.97449 9.81002 3.97449 10.1 4.20005C10.39 4.42561 10.39 4.79894 10.1 5.02449L4.56002 9.33338L10.1 13.6423C10.39 13.8678 10.39 14.2412 10.1 14.4667C9.96002 14.5834 9.76002 14.6378 9.57002 14.6378Z" fill="#7B1111"/>
<path id="Vector_2" d="M20.5 9.91667H3.67004C3.26004 9.91667 2.92004 9.65222 2.92004 9.33333C2.92004 9.01444 3.26004 8.75 3.67004 8.75H20.5C20.91 8.75 21.25 9.01444 21.25 9.33333C21.25 9.65222 20.91 9.91667 20.5 9.91667Z" fill="#7B1111"/>
</g>
</svg>
