<svg width="38" height="38" viewBox="0 0 38 38" fill="none" xmlns="http://www.w3.org/2000/svg">
<path fill-rule="evenodd" clip-rule="evenodd" d="M19 3.5625C10.4737 3.5625 3.5625 10.4737 3.5625 19C3.5625 27.5263 10.4737 34.4375 19 34.4375C27.5263 34.4375 34.4375 27.5263 34.4375 19C34.4375 10.4737 27.5263 3.5625 19 3.5625ZM5.9375 19C5.93837 16.2479 6.80844 13.5664 8.42356 11.3381C10.0387 9.10982 12.3163 7.44856 14.9315 6.59139C17.5467 5.73422 20.3658 5.72493 22.9866 6.56484C25.6074 7.40475 27.8959 9.05096 29.5257 11.2686C31.1554 13.4862 32.0432 16.1619 32.0622 18.9139C32.0812 21.6659 31.2305 24.3536 29.6316 26.5935C28.0326 28.8334 25.767 30.5111 23.1581 31.3872C20.5492 32.2632 17.7302 32.2929 15.1034 31.4719C15.7726 30.4208 16.3047 29.2886 16.6867 28.1026L17.5038 24.9723C17.8416 25.4546 18.2947 25.8449 18.8217 26.1076C19.3487 26.3702 19.9331 26.4971 20.5216 26.4765C24.5353 26.4765 27.3568 22.8285 27.3568 18.297C27.3568 13.9444 23.8023 10.6922 19.2438 10.6922C13.5644 10.6922 10.5482 14.5081 10.5482 18.6548C10.5482 20.5912 11.5726 22.9884 13.2177 23.7595C13.4615 23.8719 13.6214 23.7595 13.6594 23.5806C13.6974 23.4017 13.9222 22.5008 14.0252 22.0859C14.0411 22.0205 14.0409 21.9521 14.0247 21.8868C14.0084 21.8214 13.9765 21.761 13.9318 21.7107C13.3101 20.8351 12.9809 19.7856 12.9913 18.7118C12.988 17.941 13.1411 17.1775 13.4415 16.4676C13.7419 15.7577 14.1832 15.1162 14.7387 14.5818C15.2943 14.0474 15.9525 13.6314 16.6735 13.3588C17.3945 13.0862 18.1634 12.9628 18.9335 12.996C19.6547 12.9538 20.3767 13.0624 21.0536 13.3149C21.7304 13.5673 22.3473 13.9581 22.8647 14.4622C23.3821 14.9664 23.7887 15.5728 24.0586 16.2429C24.3286 16.913 24.4559 17.632 24.4324 18.354C24.4324 21.907 22.6274 24.3802 20.2968 24.3802C19.9956 24.4031 19.6934 24.3532 19.4157 24.2347C19.1379 24.1161 18.8928 23.9325 18.701 23.6992C18.5092 23.466 18.3764 23.19 18.3138 22.8946C18.2512 22.5991 18.2606 22.293 18.3413 22.002C18.4743 21.4478 18.6517 20.8763 18.8227 20.3189C19.1346 19.3088 19.4323 18.3477 19.4323 17.6209C19.4646 17.3847 19.4456 17.1442 19.3765 16.916C19.3074 16.6878 19.1899 16.4771 19.0319 16.2985C18.8739 16.1199 18.6792 15.9776 18.4611 15.8812C18.243 15.7847 18.0066 15.7366 17.7682 15.7399C16.4508 15.7399 15.3884 17.1127 15.3884 18.9367C15.3789 19.5811 15.4992 20.2208 15.7463 20.8177L14.1946 27.398C14.0049 28.6416 14.0049 29.9069 14.1946 31.1505C13.172 30.7453 12.2048 30.2122 11.3161 29.564C9.13441 27.9707 7.49592 25.7446 6.62308 23.1879C6.16753 21.8387 5.93594 20.424 5.9375 19Z" fill="white" fill-opacity="0.5"/>
</svg>
