<svg width="38" height="38" viewBox="0 0 38 38" fill="none" xmlns="http://www.w3.org/2000/svg">
<path d="M30.1625 7.7741C28.7109 6.30781 26.9819 5.14524 25.0762 4.35418C23.1706 3.56312 21.1266 3.15941 19.0633 3.1666C10.4183 3.1666 3.37249 10.2124 3.37249 18.8574C3.37249 21.6283 4.10082 24.3199 5.46249 26.6949L3.24582 34.8333L11.5583 32.6483C13.8542 33.8991 16.435 34.5641 19.0633 34.5641C27.7083 34.5641 34.7542 27.5183 34.7542 18.8733C34.7542 14.6774 33.1233 10.7349 30.1625 7.7741ZM19.0633 31.9041C16.72 31.9041 14.4242 31.2708 12.4133 30.0833L11.9383 29.7983L6.99832 31.0966L8.31249 26.2833L7.99582 25.7924C6.69392 23.7135 6.00262 21.3104 6.00082 18.8574C6.00082 11.6691 11.8592 5.81077 19.0475 5.81077C22.5308 5.81077 25.8083 7.17243 28.2625 9.64243C29.4777 10.852 30.4407 12.2908 31.0957 13.8754C31.7507 15.4599 32.0847 17.1587 32.0783 18.8733C32.11 26.0616 26.2517 31.9041 19.0633 31.9041ZM26.22 22.1508C25.8242 21.9608 23.8925 21.0108 23.5442 20.8683C23.18 20.7416 22.9267 20.6783 22.6575 21.0583C22.3883 21.4541 21.6442 22.3408 21.4225 22.5941C21.2008 22.8633 20.9633 22.8949 20.5675 22.6891C20.1717 22.4991 18.905 22.0716 17.4167 20.7416C16.245 19.6966 15.4692 18.4141 15.2317 18.0183C15.01 17.6224 15.2 17.4166 15.4058 17.2108C15.58 17.0366 15.8017 16.7516 15.9917 16.5299C16.1817 16.3083 16.2608 16.1341 16.3875 15.8808C16.5142 15.6116 16.4508 15.3899 16.3558 15.1999C16.2608 15.0099 15.4692 13.0783 15.1525 12.2866C14.8358 11.5266 14.5033 11.6216 14.2658 11.6058H13.5058C13.2367 11.6058 12.825 11.7008 12.4608 12.0966C12.1125 12.4924 11.0992 13.4424 11.0992 15.3741C11.0992 17.3058 12.5083 19.1741 12.6983 19.4274C12.8883 19.6966 15.4692 23.6549 19.3958 25.3491C20.33 25.7608 21.0583 25.9983 21.6283 26.1724C22.5625 26.4733 23.4175 26.4258 24.0983 26.3308C24.8583 26.2199 26.4258 25.3808 26.7425 24.4624C27.075 23.5441 27.075 22.7683 26.9642 22.5941C26.8533 22.4199 26.6158 22.3408 26.22 22.1508Z" fill="white" fill-opacity="0.5"/>
</svg>
