<svg width="38" height="38" viewBox="0 0 38 38" fill="none" xmlns="http://www.w3.org/2000/svg">
<g id="mdi:instagram">
<path id="Vector" d="M12.35 3.1665H25.65C30.7167 3.1665 34.8334 7.28317 34.8334 12.3498V25.6498C34.8334 28.0854 33.8658 30.4212 32.1436 32.1434C30.4214 33.8656 28.0856 34.8332 25.65 34.8332H12.35C7.28335 34.8332 3.16669 30.7165 3.16669 25.6498V12.3498C3.16669 9.91427 4.13421 7.57845 5.85642 5.85624C7.57863 4.13403 9.91445 3.1665 12.35 3.1665ZM12.0334 6.33317C10.5216 6.33317 9.0718 6.9337 8.00284 8.00266C6.93389 9.07162 6.33335 10.5214 6.33335 12.0332V25.9665C6.33335 29.1173 8.88252 31.6665 12.0334 31.6665H25.9667C27.4784 31.6665 28.9282 31.066 29.9972 29.997C31.0662 28.9281 31.6667 27.4782 31.6667 25.9665V12.0332C31.6667 8.88234 29.1175 6.33317 25.9667 6.33317H12.0334ZM27.3125 8.70817C27.8374 8.70817 28.3408 8.91669 28.712 9.28785C29.0832 9.65902 29.2917 10.1624 29.2917 10.6873C29.2917 11.2122 29.0832 11.7157 28.712 12.0868C28.3408 12.458 27.8374 12.6665 27.3125 12.6665C26.7876 12.6665 26.2842 12.458 25.913 12.0868C25.5419 11.7157 25.3334 11.2122 25.3334 10.6873C25.3334 10.1624 25.5419 9.65902 25.913 9.28785C26.2842 8.91669 26.7876 8.70817 27.3125 8.70817ZM19 11.0832C21.0996 11.0832 23.1133 11.9172 24.5979 13.4019C26.0826 14.8866 26.9167 16.9002 26.9167 18.9998C26.9167 21.0995 26.0826 23.1131 24.5979 24.5978C23.1133 26.0824 21.0996 26.9165 19 26.9165C16.9004 26.9165 14.8868 26.0824 13.4021 24.5978C11.9174 23.1131 11.0834 21.0995 11.0834 18.9998C11.0834 16.9002 11.9174 14.8866 13.4021 13.4019C14.8868 11.9172 16.9004 11.0832 19 11.0832ZM19 14.2498C17.7402 14.2498 16.5321 14.7503 15.6413 15.6411C14.7505 16.5319 14.25 17.7401 14.25 18.9998C14.25 20.2596 14.7505 21.4678 15.6413 22.3586C16.5321 23.2494 17.7402 23.7498 19 23.7498C20.2598 23.7498 21.468 23.2494 22.3588 22.3586C23.2496 21.4678 23.75 20.2596 23.75 18.9998C23.75 17.7401 23.2496 16.5319 22.3588 15.6411C21.468 14.7503 20.2598 14.2498 19 14.2498Z" fill="white" fill-opacity="0.5"/>
</g>
</svg>
