<svg width="38" height="38" viewBox="0 0 38 38" fill="none" xmlns="http://www.w3.org/2000/svg">
<path d="M35.1619 3.88779C34.9779 3.72892 34.754 3.62326 34.5144 3.58219C34.2748 3.54112 34.0286 3.56621 33.8022 3.65475L3.71982 15.4273C3.29349 15.5931 2.93254 15.8929 2.69133 16.2816C2.45013 16.6702 2.3417 17.1267 2.38239 17.5824C2.42308 18.038 2.61068 18.4681 2.91694 18.8078C3.22321 19.1476 3.63156 19.3787 4.08052 19.4663L11.875 20.9967V29.6877C11.8734 30.1611 12.0141 30.6241 12.2788 31.0166C12.5435 31.409 12.9199 31.713 13.3594 31.889C13.7981 32.0682 14.2806 32.1112 14.7442 32.0125C15.2077 31.9137 15.6308 31.6778 15.9585 31.3354L19.7169 27.4374L25.6797 32.6565C26.1099 33.038 26.6647 33.2492 27.2397 33.2502C27.4917 33.25 27.7422 33.2105 27.9819 33.133C28.3737 33.0086 28.7261 32.7838 29.004 32.4809C29.2819 32.1781 29.4756 31.8077 29.5658 31.4066L35.5908 5.19553C35.6447 4.95914 35.6333 4.71254 35.5577 4.48217C35.4821 4.25179 35.3453 4.04633 35.1619 3.88779ZM26.0864 9.23154L12.7879 18.7553L5.42537 17.311L26.0864 9.23154ZM14.25 29.6877V22.6399L17.9297 25.8669L14.25 29.6877ZM27.2427 30.8752L14.9699 20.1135L32.634 7.45326L27.2427 30.8752Z" fill="white"/>
</svg>
